%TF.GenerationSoftware,KiCad,Pcbnew,9.0.5*%
%TF.CreationDate,2020-01-01T00:00:00+00:00*%
%TF.ProjectId,DemoBoard,00000000-0000-0000-0000-000000000000,rev?*%
%TF.SameCoordinates,Original*%
%TF.FileFunction,Plated,1,4,PTH,Drill*%
%TF.FilePolarity,Positive*%
%FSLAX46Y46*%
G04 Gerber Fmt 4.6, Leading zero omitted, Abs format (unit mm)*
G04 Created by KiCad*
%MOMM*%
%LPD*%
G01*
G04 APERTURE LIST*
%TA.AperFunction,ViaDrill*%
%ADD10C,0.500000*%
%TD*%
%TA.AperFunction,ViaDrill*%
%ADD11C,0.800000*%
%TD*%
%TA.AperFunction,ComponentDrill*%
%ADD12C,0.800000*%
%TD*%
%TA.AperFunction,ComponentDrill*%
%ADD13C,0.950000*%
%TD*%
%TA.AperFunction,ComponentDrill*%
%ADD14C,1.000000*%
%TD*%
%TA.AperFunction,ComponentDrill*%
%ADD15C,1.020000*%
%TD*%
%TA.AperFunction,ComponentDrill*%
%ADD16C,1.200000*%
%TD*%
%TA.AperFunction,ComponentDrill*%
%ADD17C,1.300000*%
%TD*%
%TA.AperFunction,ComponentDrill*%
%ADD18C,1.701800*%
%TD*%
%TA.AperFunction,ComponentDrill*%
%ADD19C,3.000000*%
%TD*%
%TA.AperFunction,ComponentDrill*%
%ADD20C,3.900000*%
%TD*%
G04 APERTURE END LIST*
D10*
X119610000Y-77500000D03*
X120300000Y-143600000D03*
X120330000Y-140680000D03*
X120737500Y-84950000D03*
X120750000Y-82270000D03*
X120870000Y-114400000D03*
X120880000Y-111610000D03*
X121490000Y-79240000D03*
X122025217Y-57242649D03*
X122045217Y-56102649D03*
X122085217Y-58272649D03*
X122425000Y-60825000D03*
X122510000Y-152330000D03*
X122600000Y-93540000D03*
X122630000Y-89750000D03*
X122670000Y-90730000D03*
X122680000Y-88780000D03*
X122705217Y-62562649D03*
X122846030Y-122988215D03*
X122876030Y-119198215D03*
X122915217Y-55362649D03*
X122916030Y-120178215D03*
X122920000Y-94700000D03*
X122923617Y-148582677D03*
X122926030Y-118228215D03*
X122963617Y-149562677D03*
X122973617Y-147612677D03*
X123090000Y-153600000D03*
X123166030Y-124148215D03*
X123350000Y-77510000D03*
X123585217Y-63022649D03*
X123590000Y-87800000D03*
X123836030Y-117248215D03*
X123883617Y-146632677D03*
X123950000Y-95350000D03*
X124196030Y-124798215D03*
X124215217Y-55352649D03*
X124243617Y-154182677D03*
X124500000Y-59500000D03*
X124885217Y-62992649D03*
X125195217Y-55322649D03*
X125470000Y-95470000D03*
X125716030Y-124918215D03*
X125760000Y-154190000D03*
X126137717Y-62892649D03*
X126785000Y-95425000D03*
X127031030Y-124873215D03*
X127095217Y-62482649D03*
X127120000Y-154110000D03*
X127420000Y-87880000D03*
X127666030Y-117328215D03*
X127713617Y-146712677D03*
X127970000Y-94820000D03*
X128160000Y-153500000D03*
X128190000Y-93500000D03*
X128216030Y-124268215D03*
X128260000Y-152290000D03*
X128270000Y-88650000D03*
X128340000Y-90830000D03*
X128436030Y-122948215D03*
X128450000Y-89700000D03*
X128516030Y-118098215D03*
X128563617Y-147482677D03*
X128586030Y-120278215D03*
X128633617Y-149662677D03*
X128696030Y-119148215D03*
X128743617Y-148532677D03*
X128875217Y-62612649D03*
X128915217Y-56112649D03*
X130750000Y-62750000D03*
X132235217Y-62542649D03*
X132275217Y-56162649D03*
X132630000Y-94260000D03*
X132876030Y-123708215D03*
X132923617Y-153092677D03*
X133160000Y-93100000D03*
X133406030Y-122548215D03*
X133453617Y-151932677D03*
X133960000Y-92140000D03*
X134206030Y-121588215D03*
X134250000Y-62250000D03*
X134253617Y-150972677D03*
X134550000Y-199560000D03*
X135250000Y-91780000D03*
X135496030Y-121228215D03*
X135543617Y-150612677D03*
X136250000Y-63000000D03*
X136454179Y-45178753D03*
X136454179Y-46078753D03*
X136454179Y-46978753D03*
X136454179Y-47878753D03*
X136454179Y-48778753D03*
X136500000Y-91730000D03*
X136746030Y-121178215D03*
X136793617Y-150562677D03*
X138000000Y-67750000D03*
X138750000Y-55375000D03*
X139479179Y-50378753D03*
X140825000Y-67925000D03*
X142554179Y-45178753D03*
X142554179Y-46078753D03*
X142554179Y-46978753D03*
X142554179Y-47878753D03*
X142554179Y-48778753D03*
X142554179Y-56478753D03*
X142554179Y-57478753D03*
X142554179Y-58478753D03*
X142554179Y-59478753D03*
X142560989Y-55225153D03*
X142750000Y-63000000D03*
X152337493Y-139751707D03*
X154250000Y-141280000D03*
X154500000Y-138000000D03*
X154889200Y-102616000D03*
X159625000Y-81975000D03*
X159650000Y-83100000D03*
X163854179Y-45178753D03*
X163854179Y-46078753D03*
X163854179Y-46978753D03*
X163854179Y-47878753D03*
X163854179Y-48778753D03*
X163954179Y-56478753D03*
X163954179Y-57478753D03*
X163954179Y-58478753D03*
X163954179Y-59478753D03*
X163954179Y-60478753D03*
X164780000Y-147020000D03*
X166182438Y-91894723D03*
X166207438Y-93019723D03*
X167004179Y-50403753D03*
X167004179Y-55028753D03*
X170054179Y-45178753D03*
X170054179Y-46078753D03*
X170054179Y-46978753D03*
X170054179Y-47878753D03*
X170054179Y-48778753D03*
X170829179Y-50303753D03*
X171135989Y-54082153D03*
X172500000Y-143900000D03*
X173142589Y-55834753D03*
X175022189Y-54056753D03*
X176300000Y-161050000D03*
X177501989Y-49738753D03*
X178501989Y-49738753D03*
X183500000Y-82540000D03*
X183500000Y-84220000D03*
X183500000Y-86040000D03*
X183540000Y-87500000D03*
X183750000Y-81000000D03*
X185325000Y-37800000D03*
X185325000Y-47975000D03*
X185375000Y-42925000D03*
X185499963Y-108753200D03*
X185500000Y-87500000D03*
X185519963Y-114863200D03*
X185675000Y-39775000D03*
X185675000Y-49950000D03*
X185710000Y-81000000D03*
X185725000Y-44900000D03*
X186399963Y-108753200D03*
X186419963Y-114863200D03*
X186700000Y-36600000D03*
X186700000Y-46775000D03*
X186750000Y-41725000D03*
X187299963Y-108753200D03*
X187319963Y-114863200D03*
X187320000Y-87500000D03*
X187530000Y-81000000D03*
X187600000Y-40450000D03*
X187600000Y-50625000D03*
X187650000Y-45575000D03*
X188199963Y-108753200D03*
X188219963Y-114863200D03*
X188350000Y-36650000D03*
X188350000Y-46825000D03*
X188400000Y-41775000D03*
X189000000Y-87500000D03*
X189099963Y-108753200D03*
X189119963Y-114863200D03*
X189210000Y-81000000D03*
X189275000Y-40100000D03*
X189275000Y-50275000D03*
X189325000Y-45225000D03*
X189575000Y-37700000D03*
X189575000Y-47875000D03*
X189625000Y-42825000D03*
X190338400Y-160842800D03*
X190400000Y-115580000D03*
X190400000Y-118250000D03*
X190790000Y-87500000D03*
X190839963Y-111793200D03*
X191000000Y-81000000D03*
X191000000Y-82500000D03*
X191000000Y-84180000D03*
X191000000Y-86000000D03*
X191330000Y-72950000D03*
X191690000Y-77630000D03*
X192120000Y-76560000D03*
X193240000Y-76490000D03*
X195400000Y-82200000D03*
X195400000Y-83200000D03*
X195400000Y-84200000D03*
X195400000Y-85200000D03*
X195400000Y-86200000D03*
X195440000Y-76520000D03*
X196640000Y-76540000D03*
X196740000Y-115630000D03*
X196789963Y-108793200D03*
X196800000Y-81200000D03*
X196819963Y-87333200D03*
X196900000Y-118240000D03*
X197280000Y-77640000D03*
X197640000Y-72930000D03*
X197789963Y-108793200D03*
X197800000Y-81200000D03*
X197819963Y-87333200D03*
X198789963Y-108793200D03*
X198800000Y-81200000D03*
X198819963Y-87333200D03*
X199789963Y-108793200D03*
X199800000Y-81200000D03*
X199819963Y-87333200D03*
X200789963Y-108793200D03*
X200800000Y-81200000D03*
X200819963Y-87333200D03*
X202400000Y-82200000D03*
X202400000Y-83200000D03*
X202400000Y-84200000D03*
X202400000Y-85200000D03*
X202400000Y-86200000D03*
X203669900Y-160670000D03*
X207400000Y-75500000D03*
X207400000Y-76650000D03*
X215200000Y-160990000D03*
X217424000Y-190423800D03*
X217424000Y-196875400D03*
X219430600Y-195199000D03*
X220395800Y-191795400D03*
X220903800Y-195503800D03*
X221528400Y-83435800D03*
X221550000Y-128080000D03*
X222326200Y-189915800D03*
X222528400Y-83455800D03*
X223570913Y-185500000D03*
X224028000Y-191795400D03*
X224625000Y-128100000D03*
X224945913Y-185925000D03*
X225110913Y-197000000D03*
X225110913Y-197900000D03*
X225110913Y-198800000D03*
X225110913Y-199700000D03*
X225110913Y-200600000D03*
X225170913Y-187300000D03*
X225648400Y-83505800D03*
X231150913Y-197000000D03*
X231150913Y-197900000D03*
X231150913Y-198800000D03*
X231150913Y-199700000D03*
X231150913Y-200600000D03*
X238411216Y-82208518D03*
X238436216Y-83333518D03*
X239200000Y-116600000D03*
X239510000Y-96500000D03*
X239530000Y-155260000D03*
X242800000Y-117600000D03*
X243400000Y-114200000D03*
X245799102Y-80835313D03*
X245824102Y-81960313D03*
X252550000Y-185360000D03*
X252570000Y-186270000D03*
X252570000Y-187180000D03*
X252590000Y-188090000D03*
X252610000Y-188980000D03*
X252620913Y-197000000D03*
X252620913Y-197900000D03*
X252620913Y-198800000D03*
X252620913Y-199700000D03*
X252620913Y-200600000D03*
X257880000Y-107492385D03*
X257940000Y-166294883D03*
X257957500Y-136864885D03*
X258700000Y-184980000D03*
X258720000Y-185870000D03*
X258740000Y-186780000D03*
X258750000Y-187720000D03*
X258750000Y-188680000D03*
X258800913Y-197010000D03*
X258800913Y-197910000D03*
X258800913Y-198810000D03*
X258800913Y-199710000D03*
X258800913Y-200610000D03*
X259130000Y-107442385D03*
X259190000Y-166244883D03*
X259207500Y-136814885D03*
X259210000Y-189590000D03*
X259590913Y-195290000D03*
X260145000Y-189565000D03*
X260420000Y-107082385D03*
X260480000Y-165884883D03*
X260497500Y-136454885D03*
X261145000Y-189565000D03*
X261220000Y-106122385D03*
X261280000Y-164924883D03*
X261297500Y-135494885D03*
X261400000Y-80800000D03*
X261500000Y-104810000D03*
X261560000Y-163612498D03*
X261570000Y-180940000D03*
X261577500Y-134182500D03*
X262145000Y-189565000D03*
X262610000Y-195710000D03*
X263100000Y-189540000D03*
X264230000Y-180880000D03*
X264750000Y-80975000D03*
X265150000Y-109187502D03*
X265210000Y-167990000D03*
X265227500Y-138560002D03*
X265260000Y-108057502D03*
X265320000Y-166860000D03*
X265330000Y-110237502D03*
X265337500Y-137430002D03*
X265340000Y-105300000D03*
X265390000Y-169040000D03*
X265400000Y-164102498D03*
X265407500Y-139610002D03*
X265417500Y-134672500D03*
X265440000Y-104090000D03*
X265500000Y-162892498D03*
X265517500Y-133462500D03*
X265620000Y-63850000D03*
X266180000Y-111007502D03*
X266240000Y-169810000D03*
X266257500Y-140380002D03*
X266480000Y-103480000D03*
X266540000Y-162282498D03*
X266557500Y-132852500D03*
X266791806Y-180576989D03*
X267380000Y-187980000D03*
X267840000Y-103400000D03*
X267900000Y-162202498D03*
X267917500Y-132772500D03*
X268460000Y-187950000D03*
X268470000Y-180190000D03*
X268528800Y-80949800D03*
X269356383Y-103407323D03*
X269416383Y-162209821D03*
X269433883Y-132779823D03*
X269480000Y-187970000D03*
X270010000Y-111087502D03*
X270070000Y-169890000D03*
X270087500Y-140460002D03*
X270161806Y-180556989D03*
X270510000Y-103990000D03*
X270570000Y-162792498D03*
X270587500Y-133362500D03*
X270920000Y-110107502D03*
X270930000Y-108157502D03*
X270970000Y-109137502D03*
X270980000Y-168910000D03*
X270990000Y-166960000D03*
X270997500Y-139480002D03*
X271007500Y-137530002D03*
X271030000Y-167940000D03*
X271047500Y-138510002D03*
X271090000Y-105260000D03*
X271150000Y-164062498D03*
X271167500Y-134632500D03*
X271230000Y-184920000D03*
X271240000Y-187020000D03*
X271260000Y-186000000D03*
X271380000Y-79080000D03*
X272810000Y-173090000D03*
X272820000Y-175730000D03*
X272860000Y-114090000D03*
X272860000Y-116830000D03*
X272860000Y-146220000D03*
X272867500Y-143490000D03*
D11*
X159575000Y-92800000D03*
X195200000Y-36300000D03*
X195200000Y-38550000D03*
X195200000Y-40900000D03*
X195225000Y-43650000D03*
X195250000Y-45925000D03*
X195400000Y-48375000D03*
X196100000Y-50400000D03*
X197075000Y-36300000D03*
X197750000Y-46100000D03*
X197800000Y-41175000D03*
X198175000Y-51175000D03*
X199250000Y-36275000D03*
X200100000Y-49825000D03*
X200550000Y-37625000D03*
X200625000Y-39775000D03*
X200625000Y-41775000D03*
X200625000Y-44525000D03*
X200625000Y-46975000D03*
X204300000Y-36775000D03*
X204400000Y-38650000D03*
X204400000Y-59450000D03*
X204400000Y-66300000D03*
X204500000Y-57050000D03*
X204575000Y-45075000D03*
X204675000Y-46950000D03*
X204700000Y-68350000D03*
X205400000Y-40750000D03*
X205400000Y-61550000D03*
X205450000Y-35150000D03*
X205450000Y-70000000D03*
X205475000Y-43175000D03*
X205550000Y-64400000D03*
X205675000Y-49050000D03*
X205700000Y-55400000D03*
X206900000Y-71650000D03*
X206975000Y-42025000D03*
X207050000Y-62650000D03*
X207500000Y-50150000D03*
X208150000Y-54500000D03*
X208850000Y-41825000D03*
X209050000Y-62850000D03*
X209750000Y-50300000D03*
X210900000Y-54750000D03*
X211000000Y-63450000D03*
X211150000Y-41900000D03*
X211250000Y-71750000D03*
X211925000Y-49700000D03*
X212250000Y-61950000D03*
X212300000Y-70250000D03*
X212700000Y-56250000D03*
X212850000Y-35325000D03*
X213000000Y-39750000D03*
X213000000Y-64650000D03*
X213125000Y-43625000D03*
X213150000Y-66800000D03*
X213200000Y-60200000D03*
X213275000Y-37725000D03*
X213275000Y-48050000D03*
X213550000Y-46025000D03*
X213600000Y-58200000D03*
X213800000Y-68700000D03*
X214250000Y-62850000D03*
X215250000Y-69800000D03*
X215700000Y-61600000D03*
X217150000Y-70050000D03*
X217850000Y-61450000D03*
X219050000Y-69700000D03*
X219950000Y-62150000D03*
X220900000Y-68200000D03*
X221250000Y-63650000D03*
X221550000Y-65800000D03*
X221900000Y-57950000D03*
X222000000Y-55550000D03*
X222900000Y-60050000D03*
X223200000Y-53900000D03*
X225000000Y-61250000D03*
X225950000Y-52700000D03*
X228100000Y-61350000D03*
X228400000Y-53250000D03*
X230200000Y-60150000D03*
X230500000Y-55100000D03*
X231000000Y-57350000D03*
X232280000Y-68645610D03*
X233375000Y-61925000D03*
X234425000Y-70025000D03*
X235700000Y-61575000D03*
X236650000Y-70075000D03*
X237725000Y-62050000D03*
X238575000Y-68925000D03*
X239000000Y-63875000D03*
X239450000Y-66350000D03*
X239925000Y-88150000D03*
X261400000Y-74050000D03*
X264800000Y-74000000D03*
D12*
X173184179Y-51566753D03*
X173184179Y-54066753D03*
X193230000Y-78070000D03*
X195730000Y-78070000D03*
X222270000Y-191750000D03*
X222270000Y-194250000D03*
D13*
X121490000Y-72500000D03*
X121490000Y-75000000D03*
X121490000Y-77500000D03*
X173177200Y-167192400D03*
X173177200Y-169692400D03*
X173177200Y-172192400D03*
X173177200Y-174692400D03*
X173177200Y-177192400D03*
X187199373Y-167077200D03*
X187199373Y-169577200D03*
X187199373Y-172077200D03*
X187199373Y-174577200D03*
X187199373Y-177077200D03*
X200507600Y-167040000D03*
X200507600Y-169540000D03*
X200507600Y-172040000D03*
X200507600Y-174540000D03*
X200507600Y-177040000D03*
X213715600Y-167141600D03*
X213715600Y-169641600D03*
X213715600Y-172141600D03*
X213715600Y-174641600D03*
X213715600Y-177141600D03*
D14*
X129111750Y-188315000D03*
X129111750Y-190855000D03*
X129111750Y-193395000D03*
X129111750Y-195935000D03*
X152409997Y-87929999D03*
X152409997Y-90469999D03*
X152409997Y-93009999D03*
X152409997Y-95549999D03*
X152409997Y-98089999D03*
X152409997Y-100629999D03*
X152409997Y-103169999D03*
X152409997Y-105709999D03*
X152629998Y-117304999D03*
X152629998Y-119844999D03*
X152629998Y-122384999D03*
X152629998Y-124924999D03*
X152629998Y-127464999D03*
X152629998Y-130004999D03*
X152629998Y-132544999D03*
X152629998Y-135084999D03*
X152669998Y-146679999D03*
X152669998Y-149219999D03*
X152669998Y-151759999D03*
X152669998Y-154299999D03*
X152669998Y-156839999D03*
X152669998Y-159379999D03*
X152669998Y-161919999D03*
X152669998Y-164459999D03*
X173980000Y-146230000D03*
X176520000Y-146230000D03*
X179060000Y-146230000D03*
X181600000Y-146230000D03*
X184140000Y-146230000D03*
X186680000Y-146230000D03*
X189220000Y-146230000D03*
X191760000Y-146230000D03*
X194300000Y-146230000D03*
X196840000Y-146230000D03*
X205680000Y-199180000D03*
X208180000Y-199180000D03*
X241870000Y-152130000D03*
X241870000Y-154670000D03*
X241870000Y-157210000D03*
X241870000Y-159750000D03*
X241870000Y-162290000D03*
X241870000Y-164830000D03*
X241870000Y-167370000D03*
X241870000Y-169910000D03*
X241950000Y-93350000D03*
X241950000Y-95890000D03*
X241950000Y-98430000D03*
X241950000Y-100970000D03*
X241950000Y-103510000D03*
X241950000Y-106050000D03*
X241950000Y-108590000D03*
X241950000Y-111130000D03*
X241960000Y-122720001D03*
X241960000Y-125260001D03*
X241960000Y-127800001D03*
X241960000Y-130340001D03*
X241960000Y-132880001D03*
X241960000Y-135420001D03*
X241960000Y-137960001D03*
X241960000Y-140500001D03*
D15*
X169392600Y-130479800D03*
X169392600Y-153339800D03*
X171932600Y-130479800D03*
X171932600Y-153339800D03*
X174472600Y-130479800D03*
X174472600Y-153339800D03*
X177012600Y-130479800D03*
X177012600Y-153339800D03*
X179552600Y-130479800D03*
X179552600Y-153339800D03*
X182092600Y-130479800D03*
X182092600Y-153339800D03*
X184632600Y-130479800D03*
X184632600Y-153339800D03*
X187172600Y-130479800D03*
X187172600Y-153339800D03*
X189712600Y-130479800D03*
X189712600Y-153339800D03*
X192252600Y-130479800D03*
X192252600Y-153339800D03*
X194792600Y-130479800D03*
X194792600Y-153339800D03*
X197332600Y-130479800D03*
X197332600Y-153339800D03*
X199872600Y-130479800D03*
X199872600Y-153339800D03*
X202412600Y-130479800D03*
X202412600Y-153339800D03*
X204952600Y-130479800D03*
X204952600Y-153339800D03*
X207492600Y-130479800D03*
X207492600Y-153339800D03*
X210032600Y-130479800D03*
X210032600Y-153339800D03*
X212572600Y-130479800D03*
X212572600Y-153339800D03*
X215112600Y-130479800D03*
X215112600Y-153339800D03*
X217652600Y-130479800D03*
X217652600Y-153339800D03*
X220192600Y-130479800D03*
X220192600Y-153339800D03*
X222732600Y-130479800D03*
X222732600Y-153339800D03*
D16*
X124827717Y-57202649D03*
X124827717Y-61012649D03*
X125475000Y-89710000D03*
X125475000Y-93520000D03*
X125475000Y-97330000D03*
X125475000Y-101140000D03*
X125475000Y-104950000D03*
X125475000Y-119260000D03*
X125475000Y-123070000D03*
X125475000Y-126880000D03*
X125475000Y-130690000D03*
X125475000Y-134500000D03*
X125475000Y-148460000D03*
X125475000Y-152270000D03*
X125475000Y-156080000D03*
X125475000Y-159890000D03*
X125475000Y-163700000D03*
X161600000Y-82423959D03*
X161600000Y-87423959D03*
X247800000Y-81300000D03*
X247800000Y-86300000D03*
X268145000Y-93887502D03*
X268145000Y-97697502D03*
X268145000Y-101507502D03*
X268145000Y-105317502D03*
X268145000Y-109127502D03*
X268145000Y-123337502D03*
X268145000Y-127147502D03*
X268145000Y-130957502D03*
X268145000Y-134767502D03*
X268145000Y-138577502D03*
X268145000Y-152737502D03*
X268145000Y-156547502D03*
X268145000Y-160357502D03*
X268145000Y-164167502D03*
X268145000Y-167977502D03*
X268497500Y-182160000D03*
X268497500Y-185970000D03*
X268527500Y-63845000D03*
X268527500Y-67655000D03*
X268527500Y-71465000D03*
X268527500Y-75275000D03*
X268527500Y-79085000D03*
D17*
X136449998Y-99250000D03*
X136489998Y-94250000D03*
X136669999Y-128625000D03*
X136709999Y-123625000D03*
X136709999Y-158000000D03*
X136749999Y-153000000D03*
X257789999Y-163589999D03*
X257829999Y-158589999D03*
X257869999Y-104809999D03*
X257879999Y-134180000D03*
X257909999Y-99809999D03*
X257919999Y-129180000D03*
D18*
X187631324Y-38504702D03*
X187631324Y-43584702D03*
X187631324Y-48664702D03*
X197791324Y-38504702D03*
X197791324Y-43584702D03*
X197791324Y-48664702D03*
D19*
X217140000Y-65676385D03*
X226640000Y-57276385D03*
X226640000Y-74076385D03*
X227040000Y-65676385D03*
X235040000Y-65676385D03*
D20*
X209000000Y-37600000D03*
X209000000Y-46000000D03*
X209000000Y-58700000D03*
X209000000Y-67100000D03*
M02*
